<svg xmlns="http://www.w3.org/2000/svg" xmlns:xlink="http://www.w3.org/1999/xlink" width="500" zoomAndPan="magnify" viewBox="0 0 375 374.999991" height="500" preserveAspectRatio="xMidYMid meet" version="1.2"><defs><clipPath id="d651f30252"><path d="M 60.152344 165.285156 L 97 165.285156 L 97 212 L 60.152344 212 Z M 60.152344 165.285156 "/></clipPath><clipPath id="dae1bf7509"><path d="M 98 165.285156 L 135 165.285156 L 135 212 L 98 212 Z M 98 165.285156 "/></clipPath></defs><g id="d4abaca18f"><g clip-rule="nonzero" clip-path="url(#d651f30252)"><path style=" stroke:none;fill-rule:nonzero;fill:#004aad;fill-opacity:1;" d="M 77.613281 206.507812 L 89.40625 202.722656 L 96.617188 200.410156 L 96.617188 165.296875 L 93.480469 169.015625 C 93.480469 169.015625 93.441406 169.082031 93.410156 169.097656 L 60.828125 207.847656 C 60.730469 207.960938 60.6875 208.027344 60.671875 208.078125 C 60.558594 208.277344 60.488281 208.390625 60.429688 208.539062 C 60.429688 208.589844 60.386719 208.65625 60.375 208.738281 C 60.375 208.789062 60.359375 208.820312 60.34375 208.871094 C 60.203125 209.648438 60.488281 210.523438 61.058594 211.019531 C 61.371094 211.300781 61.898438 211.566406 62.609375 211.332031 L 77.625 206.523438 Z M 77.613281 206.507812 "/></g><path style=" stroke:none;fill-rule:nonzero;fill:#004aad;fill-opacity:1;" d="M 78.453125 208.308594 L 72.867188 221.644531 C 72.867188 221.644531 72.839844 221.726562 72.824219 221.761719 L 71.542969 224.832031 L 71.542969 224.917969 C 71.542969 225.378906 71.8125 225.691406 72.070312 225.824219 C 72.226562 225.90625 72.625 226.039062 73.011719 225.644531 L 94.25 203.253906 Z M 78.453125 208.308594 "/><g clip-rule="nonzero" clip-path="url(#dae1bf7509)"><path style=" stroke:none;fill-rule:nonzero;fill:#004aad;fill-opacity:1;" d="M 98.324219 200.425781 L 105.378906 202.691406 L 117.332031 206.523438 L 132.332031 211.332031 C 133.058594 211.566406 133.585938 211.285156 133.898438 211.019531 C 134.457031 210.523438 134.753906 209.648438 134.613281 208.871094 C 134.613281 208.839844 134.582031 208.789062 134.582031 208.738281 C 134.570312 208.65625 134.539062 208.574219 134.511719 208.492188 C 134.46875 208.390625 134.414062 208.261719 134.339844 208.144531 C 134.269531 208.027344 134.226562 207.945312 134.140625 207.847656 L 101.53125 169.113281 C 101.53125 169.113281 101.488281 169.066406 101.472656 169.03125 L 98.339844 165.3125 L 98.339844 200.425781 Z M 98.324219 200.425781 "/></g><path style=" stroke:none;fill-rule:nonzero;fill:#004aad;fill-opacity:1;" d="M 116.503906 208.308594 L 100.707031 203.253906 L 121.945312 225.644531 C 122.332031 226.039062 122.730469 225.90625 122.886719 225.824219 C 123.15625 225.691406 123.472656 225.363281 123.414062 224.832031 L 122.132812 221.761719 C 122.132812 221.761719 122.101562 221.675781 122.089844 221.644531 C 122.089844 221.644531 116.503906 208.308594 116.503906 208.308594 Z M 116.503906 208.308594 "/><g style="fill:#000000;fill-opacity:1;"><g transform="translate(150.737583, 210.238751)"><path style="stroke:none" d="M 32.234375 -39.5 C 33.203125 -39.5 33.988281 -39.175781 34.59375 -38.53125 C 35.195312 -37.894531 35.5 -37.070312 35.5 -36.0625 L 35.5 -15.65625 C 35.5 -12.539062 34.835938 -9.78125 33.515625 -7.375 C 32.203125 -4.976562 30.363281 -3.101562 28 -1.75 C 25.632812 -0.394531 22.929688 0.28125 19.890625 0.28125 C 16.847656 0.28125 14.132812 -0.394531 11.75 -1.75 C 9.363281 -3.101562 7.507812 -4.976562 6.1875 -7.375 C 4.875 -9.78125 4.21875 -12.539062 4.21875 -15.65625 L 4.21875 -36.0625 C 4.21875 -37.039062 4.554688 -37.859375 5.234375 -38.515625 C 5.910156 -39.171875 6.773438 -39.5 7.828125 -39.5 C 8.734375 -39.5 9.523438 -39.171875 10.203125 -38.515625 C 10.878906 -37.859375 11.21875 -37.039062 11.21875 -36.0625 L 11.21875 -15.65625 C 11.21875 -13.851562 11.609375 -12.25 12.390625 -10.84375 C 13.179688 -9.4375 14.242188 -8.359375 15.578125 -7.609375 C 16.910156 -6.859375 18.347656 -6.484375 19.890625 -6.484375 C 21.503906 -6.484375 23.015625 -6.859375 24.421875 -7.609375 C 25.828125 -8.359375 26.953125 -9.4375 27.796875 -10.84375 C 28.648438 -12.25 29.078125 -13.851562 29.078125 -15.65625 L 29.078125 -36.0625 C 29.078125 -37.070312 29.359375 -37.894531 29.921875 -38.53125 C 30.484375 -39.175781 31.253906 -39.5 32.234375 -39.5 Z M 32.234375 -39.5 "/></g></g><g style="fill:#000000;fill-opacity:1;"><g transform="translate(186.397862, 210.238751)"><path style="stroke:none" d="M 35.15625 -4.390625 C 35.34375 -3.898438 35.4375 -3.453125 35.4375 -3.046875 C 35.4375 -2.066406 35.117188 -1.265625 34.484375 -0.640625 C 33.847656 -0.0234375 33.113281 0.28125 32.28125 0.28125 C 31.601562 0.28125 30.992188 0.078125 30.453125 -0.328125 C 29.910156 -0.742188 29.488281 -1.3125 29.1875 -2.03125 L 26.25 -8.84375 L 9.46875 -8.84375 L 6.53125 -1.96875 C 6.269531 -1.257812 5.863281 -0.707031 5.3125 -0.3125 C 4.769531 0.0820312 4.179688 0.28125 3.546875 0.28125 C 2.566406 0.28125 1.820312 0.0195312 1.3125 -0.5 C 0.8125 -1.03125 0.5625 -1.742188 0.5625 -2.640625 C 0.5625 -2.984375 0.617188 -3.34375 0.734375 -3.71875 L 14.765625 -37.40625 C 15.066406 -38.164062 15.515625 -38.75 16.109375 -39.15625 C 16.710938 -39.570312 17.390625 -39.742188 18.140625 -39.671875 C 18.816406 -39.671875 19.445312 -39.472656 20.03125 -39.078125 C 20.613281 -38.679688 21.035156 -38.125 21.296875 -37.40625 Z M 12.234375 -15.328125 L 23.5 -15.328125 L 17.796875 -28.515625 Z M 12.234375 -15.328125 "/></g></g><g style="fill:#000000;fill-opacity:1;"><g transform="translate(218.339962, 210.238751)"><path style="stroke:none" d="M 35.15625 -4.390625 C 35.34375 -3.898438 35.4375 -3.453125 35.4375 -3.046875 C 35.4375 -2.066406 35.117188 -1.265625 34.484375 -0.640625 C 33.847656 -0.0234375 33.113281 0.28125 32.28125 0.28125 C 31.601562 0.28125 30.992188 0.078125 30.453125 -0.328125 C 29.910156 -0.742188 29.488281 -1.3125 29.1875 -2.03125 L 26.25 -8.84375 L 9.46875 -8.84375 L 6.53125 -1.96875 C 6.269531 -1.257812 5.863281 -0.707031 5.3125 -0.3125 C 4.769531 0.0820312 4.179688 0.28125 3.546875 0.28125 C 2.566406 0.28125 1.820312 0.0195312 1.3125 -0.5 C 0.8125 -1.03125 0.5625 -1.742188 0.5625 -2.640625 C 0.5625 -2.984375 0.617188 -3.34375 0.734375 -3.71875 L 14.765625 -37.40625 C 15.066406 -38.164062 15.515625 -38.75 16.109375 -39.15625 C 16.710938 -39.570312 17.390625 -39.742188 18.140625 -39.671875 C 18.816406 -39.671875 19.445312 -39.472656 20.03125 -39.078125 C 20.613281 -38.679688 21.035156 -38.125 21.296875 -37.40625 Z M 12.234375 -15.328125 L 23.5 -15.328125 L 17.796875 -28.515625 Z M 12.234375 -15.328125 "/></g></g><g style="fill:#000000;fill-opacity:1;"><g transform="translate(250.282062, 210.238751)"><path style="stroke:none" d="M 35.15625 -4.390625 C 35.34375 -3.898438 35.4375 -3.453125 35.4375 -3.046875 C 35.4375 -2.066406 35.117188 -1.265625 34.484375 -0.640625 C 33.847656 -0.0234375 33.113281 0.28125 32.28125 0.28125 C 31.601562 0.28125 30.992188 0.078125 30.453125 -0.328125 C 29.910156 -0.742188 29.488281 -1.3125 29.1875 -2.03125 L 26.25 -8.84375 L 9.46875 -8.84375 L 6.53125 -1.96875 C 6.269531 -1.257812 5.863281 -0.707031 5.3125 -0.3125 C 4.769531 0.0820312 4.179688 0.28125 3.546875 0.28125 C 2.566406 0.28125 1.820312 0.0195312 1.3125 -0.5 C 0.8125 -1.03125 0.5625 -1.742188 0.5625 -2.640625 C 0.5625 -2.984375 0.617188 -3.34375 0.734375 -3.71875 L 14.765625 -37.40625 C 15.066406 -38.164062 15.515625 -38.75 16.109375 -39.15625 C 16.710938 -39.570312 17.390625 -39.742188 18.140625 -39.671875 C 18.816406 -39.671875 19.445312 -39.472656 20.03125 -39.078125 C 20.613281 -38.679688 21.035156 -38.125 21.296875 -37.40625 Z M 12.234375 -15.328125 L 23.5 -15.328125 L 17.796875 -28.515625 Z M 12.234375 -15.328125 "/></g></g><g style="fill:#004aad;fill-opacity:1;"><g transform="translate(148.053568, 222.880549)"><path style="stroke:none" d="M 6.0625 -7.203125 L 6.0625 -2.5625 C 6.0625 -1.675781 5.820312 -1.003906 5.34375 -0.546875 C 4.863281 -0.0976562 4.164062 0.125 3.25 0.125 C 2.332031 0.125 1.632812 -0.0976562 1.15625 -0.546875 C 0.675781 -1.003906 0.4375 -1.675781 0.4375 -2.5625 L 0.4375 -7.203125 L 2.078125 -7.203125 L 2.078125 -3.046875 C 2.078125 -2.460938 2.164062 -2.054688 2.34375 -1.828125 C 2.53125 -1.597656 2.832031 -1.484375 3.25 -1.484375 C 3.664062 -1.484375 3.960938 -1.597656 4.140625 -1.828125 C 4.328125 -2.054688 4.421875 -2.460938 4.421875 -3.046875 L 4.421875 -7.203125 Z M 6.0625 -7.203125 "/></g></g><g style="fill:#004aad;fill-opacity:1;"><g transform="translate(154.554094, 222.880549)"><path style="stroke:none" d="M 6.578125 -7.203125 L 3 -1.4375 L 6.34375 -1.4375 L 6.34375 0 L 0.140625 0 L 3.703125 -5.765625 L 0.640625 -5.765625 L 0.640625 -7.203125 Z M 6.578125 -7.203125 "/></g></g><g style="fill:#004aad;fill-opacity:1;"><g transform="translate(161.273058, 222.880549)"><path style="stroke:none" d="M 0.53125 -7.203125 L 2.765625 -7.203125 C 3.429688 -7.203125 3.96875 -7.054688 4.375 -6.765625 C 4.78125 -6.484375 4.984375 -6.019531 4.984375 -5.375 C 4.984375 -4.644531 4.679688 -4.128906 4.078125 -3.828125 C 5.097656 -3.648438 5.609375 -3.046875 5.609375 -2.015625 C 5.609375 -1.398438 5.398438 -0.910156 4.984375 -0.546875 C 4.566406 -0.179688 3.992188 0 3.265625 0 L 0.53125 0 Z M 2.171875 -4.390625 L 2.296875 -4.390625 C 2.660156 -4.390625 2.929688 -4.453125 3.109375 -4.578125 C 3.296875 -4.703125 3.390625 -4.910156 3.390625 -5.203125 C 3.390625 -5.691406 3.023438 -5.9375 2.296875 -5.9375 L 2.171875 -5.9375 Z M 2.171875 -1.265625 L 2.6875 -1.265625 C 3.488281 -1.265625 3.890625 -1.53125 3.890625 -2.0625 C 3.890625 -2.382812 3.785156 -2.613281 3.578125 -2.75 C 3.378906 -2.894531 3.082031 -2.96875 2.6875 -2.96875 L 2.171875 -2.96875 Z M 2.171875 -1.265625 "/></g></g><g style="fill:#004aad;fill-opacity:1;"><g transform="translate(167.092081, 222.880549)"><path style="stroke:none" d="M 4.640625 -7.203125 L 4.640625 -5.765625 L 2.171875 -5.765625 L 2.171875 -4.328125 L 4.546875 -4.328125 L 4.546875 -2.890625 L 2.171875 -2.890625 L 2.171875 -1.4375 L 4.640625 -1.4375 L 4.640625 0 L 0.53125 0 L 0.53125 -7.203125 Z M 4.640625 -7.203125 "/></g></g><g style="fill:#004aad;fill-opacity:1;"><g transform="translate(172.159695, 222.880549)"><path style="stroke:none" d="M 7.078125 0 L 4.828125 0 L 2.171875 -3.0625 L 2.171875 0 L 0.53125 0 L 0.53125 -7.203125 L 2.171875 -7.203125 L 2.171875 -4.265625 L 4.640625 -7.203125 L 6.625 -7.203125 L 3.734375 -3.796875 Z M 7.078125 0 "/></g></g><g style="fill:#004aad;fill-opacity:1;"><g transform="translate(179.035929, 222.880549)"><path style="stroke:none" d="M 2.171875 -7.203125 L 2.171875 0 L 0.53125 0 L 0.53125 -7.203125 Z M 2.171875 -7.203125 "/></g></g><g style="fill:#004aad;fill-opacity:1;"><g transform="translate(181.727011, 222.880549)"><path style="stroke:none" d="M 3.171875 -7.34375 C 3.566406 -7.34375 3.945312 -7.285156 4.3125 -7.171875 C 4.6875 -7.054688 4.96875 -6.941406 5.15625 -6.828125 L 5.421875 -6.65625 L 4.75 -5.34375 C 4.695312 -5.375 4.625 -5.414062 4.53125 -5.46875 C 4.4375 -5.53125 4.257812 -5.609375 4 -5.703125 C 3.75 -5.796875 3.515625 -5.84375 3.296875 -5.84375 C 3.015625 -5.84375 2.800781 -5.785156 2.65625 -5.671875 C 2.507812 -5.554688 2.4375 -5.398438 2.4375 -5.203125 C 2.4375 -5.097656 2.46875 -5.003906 2.53125 -4.921875 C 2.601562 -4.835938 2.722656 -4.742188 2.890625 -4.640625 C 3.066406 -4.546875 3.21875 -4.46875 3.34375 -4.40625 C 3.46875 -4.351562 3.664062 -4.269531 3.9375 -4.15625 C 4.40625 -3.957031 4.800781 -3.6875 5.125 -3.34375 C 5.457031 -3.007812 5.625 -2.625 5.625 -2.1875 C 5.625 -1.78125 5.546875 -1.421875 5.390625 -1.109375 C 5.242188 -0.796875 5.039062 -0.550781 4.78125 -0.375 C 4.53125 -0.207031 4.242188 -0.0820312 3.921875 0 C 3.609375 0.0820312 3.269531 0.125 2.90625 0.125 C 2.59375 0.125 2.285156 0.09375 1.984375 0.03125 C 1.679688 -0.03125 1.425781 -0.109375 1.21875 -0.203125 C 1.019531 -0.296875 0.835938 -0.390625 0.671875 -0.484375 C 0.503906 -0.578125 0.382812 -0.65625 0.3125 -0.71875 L 0.203125 -0.828125 L 1.015625 -2.203125 C 1.085938 -2.140625 1.1875 -2.0625 1.3125 -1.96875 C 1.4375 -1.882812 1.648438 -1.765625 1.953125 -1.609375 C 2.265625 -1.460938 2.539062 -1.390625 2.78125 -1.390625 C 3.476562 -1.390625 3.828125 -1.625 3.828125 -2.09375 C 3.828125 -2.195312 3.800781 -2.289062 3.75 -2.375 C 3.695312 -2.457031 3.609375 -2.539062 3.484375 -2.625 C 3.359375 -2.707031 3.25 -2.773438 3.15625 -2.828125 C 3.0625 -2.878906 2.90625 -2.953125 2.6875 -3.046875 C 2.46875 -3.148438 2.304688 -3.226562 2.203125 -3.28125 C 1.765625 -3.5 1.425781 -3.769531 1.1875 -4.09375 C 0.945312 -4.414062 0.828125 -4.765625 0.828125 -5.140625 C 0.828125 -5.785156 1.066406 -6.3125 1.546875 -6.71875 C 2.023438 -7.132812 2.566406 -7.34375 3.171875 -7.34375 Z M 3.171875 -7.34375 "/></g></g><g style="fill:#004aad;fill-opacity:1;"><g transform="translate(187.59846, 222.880549)"><path style="stroke:none" d="M 0.0625 -5.765625 L 0.0625 -7.203125 L 5.140625 -7.203125 L 5.140625 -5.765625 L 3.421875 -5.765625 L 3.421875 0 L 1.78125 0 L 1.78125 -5.765625 Z M 0.0625 -5.765625 "/></g></g><g style="fill:#004aad;fill-opacity:1;"><g transform="translate(192.805872, 222.880549)"><path style="stroke:none" d="M 4.1875 -7.203125 L 7.09375 0 L 5.328125 0 L 4.796875 -1.4375 L 2.046875 -1.4375 L 1.515625 0 L -0.25 0 L 2.65625 -7.203125 Z M 4.234375 -2.875 L 3.4375 -4.984375 L 3.421875 -4.984375 L 2.609375 -2.875 Z M 4.234375 -2.875 "/></g></g><g style="fill:#004aad;fill-opacity:1;"><g transform="translate(199.655894, 222.880549)"><path style="stroke:none" d="M 2.171875 -4.46875 L 2.171875 0 L 0.53125 0 L 0.53125 -7.203125 L 2.171875 -7.203125 L 5.03125 -2.734375 L 5.046875 -2.734375 L 5.046875 -7.203125 L 6.6875 -7.203125 L 6.6875 0 L 5.046875 0 L 2.1875 -4.46875 Z M 2.171875 -4.46875 "/></g></g><g style="fill:#004aad;fill-opacity:1;"><g transform="translate(206.872876, 222.880549)"><path style="stroke:none" d=""/></g></g><g style="fill:#004aad;fill-opacity:1;"><g transform="translate(209.258148, 222.880549)"><path style="stroke:none" d="M 4.1875 -7.203125 L 7.09375 0 L 5.328125 0 L 4.796875 -1.4375 L 2.046875 -1.4375 L 1.515625 0 L -0.25 0 L 2.65625 -7.203125 Z M 4.234375 -2.875 L 3.4375 -4.984375 L 3.421875 -4.984375 L 2.609375 -2.875 Z M 4.234375 -2.875 "/></g></g><g style="fill:#004aad;fill-opacity:1;"><g transform="translate(216.10817, 222.880549)"><path style="stroke:none" d="M 2.171875 -7.203125 L 2.171875 0 L 0.53125 0 L 0.53125 -7.203125 Z M 2.171875 -7.203125 "/></g></g><g style="fill:#004aad;fill-opacity:1;"><g transform="translate(218.799251, 222.880549)"><path style="stroke:none" d="M 0.53125 -7.203125 L 3.09375 -7.203125 C 3.789062 -7.203125 4.359375 -7.015625 4.796875 -6.640625 C 5.234375 -6.273438 5.453125 -5.75 5.453125 -5.0625 C 5.453125 -4.53125 5.316406 -4.085938 5.046875 -3.734375 C 4.785156 -3.378906 4.425781 -3.128906 3.96875 -2.984375 L 6.453125 0 L 4.375 0 L 2.171875 -2.84375 L 2.171875 0 L 0.53125 0 Z M 2.171875 -4.015625 L 2.359375 -4.015625 C 2.503906 -4.015625 2.628906 -4.015625 2.734375 -4.015625 C 2.847656 -4.023438 2.96875 -4.046875 3.09375 -4.078125 C 3.226562 -4.109375 3.335938 -4.15625 3.421875 -4.21875 C 3.503906 -4.289062 3.570312 -4.382812 3.625 -4.5 C 3.6875 -4.625 3.71875 -4.773438 3.71875 -4.953125 C 3.71875 -5.128906 3.6875 -5.273438 3.625 -5.390625 C 3.570312 -5.515625 3.503906 -5.609375 3.421875 -5.671875 C 3.335938 -5.742188 3.226562 -5.796875 3.09375 -5.828125 C 2.96875 -5.859375 2.847656 -5.875 2.734375 -5.875 C 2.628906 -5.882812 2.503906 -5.890625 2.359375 -5.890625 L 2.171875 -5.890625 Z M 2.171875 -4.015625 "/></g></g><g style="fill:#004aad;fill-opacity:1;"><g transform="translate(225.055134, 222.880549)"><path style="stroke:none" d="M 0.53125 -7.203125 L 3.15625 -7.203125 C 3.882812 -7.203125 4.472656 -7.015625 4.921875 -6.640625 C 5.378906 -6.265625 5.609375 -5.710938 5.609375 -4.984375 C 5.609375 -4.265625 5.378906 -3.695312 4.921875 -3.28125 C 4.460938 -2.875 3.875 -2.671875 3.15625 -2.671875 L 2.171875 -2.671875 L 2.171875 0 L 0.53125 0 Z M 2.171875 -3.984375 L 2.625 -3.984375 C 2.988281 -3.984375 3.289062 -4.054688 3.53125 -4.203125 C 3.769531 -4.347656 3.890625 -4.59375 3.890625 -4.9375 C 3.890625 -5.28125 3.769531 -5.523438 3.53125 -5.671875 C 3.289062 -5.816406 2.988281 -5.890625 2.625 -5.890625 L 2.171875 -5.890625 Z M 2.171875 -3.984375 "/></g></g><g style="fill:#004aad;fill-opacity:1;"><g transform="translate(230.874157, 222.880549)"><path style="stroke:none" d="M 0.203125 -3.609375 C 0.203125 -4.648438 0.554688 -5.53125 1.265625 -6.25 C 1.972656 -6.976562 2.828125 -7.34375 3.828125 -7.34375 C 4.835938 -7.34375 5.691406 -6.976562 6.390625 -6.25 C 7.097656 -5.53125 7.453125 -4.648438 7.453125 -3.609375 C 7.453125 -2.554688 7.101562 -1.671875 6.40625 -0.953125 C 5.71875 -0.234375 4.859375 0.125 3.828125 0.125 C 2.773438 0.125 1.90625 -0.226562 1.21875 -0.9375 C 0.539062 -1.65625 0.203125 -2.546875 0.203125 -3.609375 Z M 1.96875 -3.609375 C 1.96875 -3.234375 2.023438 -2.890625 2.140625 -2.578125 C 2.265625 -2.265625 2.472656 -2 2.765625 -1.78125 C 3.054688 -1.5625 3.410156 -1.453125 3.828125 -1.453125 C 4.441406 -1.453125 4.90625 -1.660156 5.21875 -2.078125 C 5.53125 -2.503906 5.6875 -3.015625 5.6875 -3.609375 C 5.6875 -4.191406 5.523438 -4.691406 5.203125 -5.109375 C 4.890625 -5.535156 4.429688 -5.75 3.828125 -5.75 C 3.234375 -5.75 2.773438 -5.535156 2.453125 -5.109375 C 2.128906 -4.691406 1.96875 -4.191406 1.96875 -3.609375 Z M 1.96875 -3.609375 "/></g></g><g style="fill:#004aad;fill-opacity:1;"><g transform="translate(238.53674, 222.880549)"><path style="stroke:none" d="M 0.53125 -7.203125 L 3.09375 -7.203125 C 3.789062 -7.203125 4.359375 -7.015625 4.796875 -6.640625 C 5.234375 -6.273438 5.453125 -5.75 5.453125 -5.0625 C 5.453125 -4.53125 5.316406 -4.085938 5.046875 -3.734375 C 4.785156 -3.378906 4.425781 -3.128906 3.96875 -2.984375 L 6.453125 0 L 4.375 0 L 2.171875 -2.84375 L 2.171875 0 L 0.53125 0 Z M 2.171875 -4.015625 L 2.359375 -4.015625 C 2.503906 -4.015625 2.628906 -4.015625 2.734375 -4.015625 C 2.847656 -4.023438 2.96875 -4.046875 3.09375 -4.078125 C 3.226562 -4.109375 3.335938 -4.15625 3.421875 -4.21875 C 3.503906 -4.289062 3.570312 -4.382812 3.625 -4.5 C 3.6875 -4.625 3.71875 -4.773438 3.71875 -4.953125 C 3.71875 -5.128906 3.6875 -5.273438 3.625 -5.390625 C 3.570312 -5.515625 3.503906 -5.609375 3.421875 -5.671875 C 3.335938 -5.742188 3.226562 -5.796875 3.09375 -5.828125 C 2.96875 -5.859375 2.847656 -5.875 2.734375 -5.875 C 2.628906 -5.882812 2.503906 -5.890625 2.359375 -5.890625 L 2.171875 -5.890625 Z M 2.171875 -4.015625 "/></g></g><g style="fill:#004aad;fill-opacity:1;"><g transform="translate(244.792623, 222.880549)"><path style="stroke:none" d="M 0.0625 -5.765625 L 0.0625 -7.203125 L 5.140625 -7.203125 L 5.140625 -5.765625 L 3.421875 -5.765625 L 3.421875 0 L 1.78125 0 L 1.78125 -5.765625 Z M 0.0625 -5.765625 "/></g></g><g style="fill:#004aad;fill-opacity:1;"><g transform="translate(250.000035, 222.880549)"><path style="stroke:none" d="M 3.171875 -7.34375 C 3.566406 -7.34375 3.945312 -7.285156 4.3125 -7.171875 C 4.6875 -7.054688 4.96875 -6.941406 5.15625 -6.828125 L 5.421875 -6.65625 L 4.75 -5.34375 C 4.695312 -5.375 4.625 -5.414062 4.53125 -5.46875 C 4.4375 -5.53125 4.257812 -5.609375 4 -5.703125 C 3.75 -5.796875 3.515625 -5.84375 3.296875 -5.84375 C 3.015625 -5.84375 2.800781 -5.785156 2.65625 -5.671875 C 2.507812 -5.554688 2.4375 -5.398438 2.4375 -5.203125 C 2.4375 -5.097656 2.46875 -5.003906 2.53125 -4.921875 C 2.601562 -4.835938 2.722656 -4.742188 2.890625 -4.640625 C 3.066406 -4.546875 3.21875 -4.46875 3.34375 -4.40625 C 3.46875 -4.351562 3.664062 -4.269531 3.9375 -4.15625 C 4.40625 -3.957031 4.800781 -3.6875 5.125 -3.34375 C 5.457031 -3.007812 5.625 -2.625 5.625 -2.1875 C 5.625 -1.78125 5.546875 -1.421875 5.390625 -1.109375 C 5.242188 -0.796875 5.039062 -0.550781 4.78125 -0.375 C 4.53125 -0.207031 4.242188 -0.0820312 3.921875 0 C 3.609375 0.0820312 3.269531 0.125 2.90625 0.125 C 2.59375 0.125 2.285156 0.09375 1.984375 0.03125 C 1.679688 -0.03125 1.425781 -0.109375 1.21875 -0.203125 C 1.019531 -0.296875 0.835938 -0.390625 0.671875 -0.484375 C 0.503906 -0.578125 0.382812 -0.65625 0.3125 -0.71875 L 0.203125 -0.828125 L 1.015625 -2.203125 C 1.085938 -2.140625 1.1875 -2.0625 1.3125 -1.96875 C 1.4375 -1.882812 1.648438 -1.765625 1.953125 -1.609375 C 2.265625 -1.460938 2.539062 -1.390625 2.78125 -1.390625 C 3.476562 -1.390625 3.828125 -1.625 3.828125 -2.09375 C 3.828125 -2.195312 3.800781 -2.289062 3.75 -2.375 C 3.695312 -2.457031 3.609375 -2.539062 3.484375 -2.625 C 3.359375 -2.707031 3.25 -2.773438 3.15625 -2.828125 C 3.0625 -2.878906 2.90625 -2.953125 2.6875 -3.046875 C 2.46875 -3.148438 2.304688 -3.226562 2.203125 -3.28125 C 1.765625 -3.5 1.425781 -3.769531 1.1875 -4.09375 C 0.945312 -4.414062 0.828125 -4.765625 0.828125 -5.140625 C 0.828125 -5.785156 1.066406 -6.3125 1.546875 -6.71875 C 2.023438 -7.132812 2.566406 -7.34375 3.171875 -7.34375 Z M 3.171875 -7.34375 "/></g></g><g style="fill:#004aad;fill-opacity:1;"><g transform="translate(255.871484, 222.880549)"><path style="stroke:none" d=""/></g></g><g style="fill:#004aad;fill-opacity:1;"><g transform="translate(258.256756, 222.880549)"><path style="stroke:none" d="M 4.1875 -7.203125 L 7.09375 0 L 5.328125 0 L 4.796875 -1.4375 L 2.046875 -1.4375 L 1.515625 0 L -0.25 0 L 2.65625 -7.203125 Z M 4.234375 -2.875 L 3.4375 -4.984375 L 3.421875 -4.984375 L 2.609375 -2.875 Z M 4.234375 -2.875 "/></g></g><g style="fill:#004aad;fill-opacity:1;"><g transform="translate(265.106778, 222.880549)"><path style="stroke:none" d="M 3.65625 -7.203125 L 3.65625 -2.03125 C 3.65625 -1.332031 3.460938 -0.796875 3.078125 -0.421875 C 2.691406 -0.0546875 2.140625 0.125 1.421875 0.125 C 1.222656 0.125 1.03125 0.0976562 0.84375 0.046875 C 0.65625 0.00390625 0.5 -0.046875 0.375 -0.109375 C 0.25 -0.171875 0.132812 -0.238281 0.03125 -0.3125 C -0.0703125 -0.382812 -0.144531 -0.441406 -0.1875 -0.484375 L -0.265625 -0.5625 L 0.25 -1.9375 C 0.59375 -1.601562 0.90625 -1.4375 1.1875 -1.4375 C 1.4375 -1.4375 1.632812 -1.519531 1.78125 -1.6875 C 1.9375 -1.851562 2.015625 -2.109375 2.015625 -2.453125 L 2.015625 -7.203125 Z M 3.65625 -7.203125 "/></g></g></g></svg>